<?xml version="1.0" encoding="UTF-8" standalone="no"?>
<!-- Created with Inkscape (http://www.inkscape.org/) -->

<svg
   width="210mm"
   height="297mm"
   viewBox="0 0 210 297"
   version="1.1"
   id="svg326"
   inkscape:version="1.2.1 (9c6d41e410, 2022-07-14)"
   sodipodi:docname="bienes cuadro.svg"
   inkscape:export-filename="bienes cuadro.png"
   inkscape:export-xdpi="67.525"
   inkscape:export-ydpi="67.525"
   xmlns:inkscape="http://www.inkscape.org/namespaces/inkscape"
   xmlns:sodipodi="http://sodipodi.sourceforge.net/DTD/sodipodi-0.dtd"
   xmlns:xlink="http://www.w3.org/1999/xlink"
   xmlns="http://www.w3.org/2000/svg"
   xmlns:svg="http://www.w3.org/2000/svg">
  <sodipodi:namedview
     id="namedview328"
     pagecolor="#ffffff"
     bordercolor="#666666"
     borderopacity="1.0"
     inkscape:showpageshadow="2"
     inkscape:pageopacity="0.0"
     inkscape:pagecheckerboard="0"
     inkscape:deskcolor="#d1d1d1"
     inkscape:document-units="mm"
     showgrid="false"
     inkscape:zoom="0.5455178"
     inkscape:cx="543.5203"
     inkscape:cy="674.58843"
     inkscape:window-width="1920"
     inkscape:window-height="1043"
     inkscape:window-x="0"
     inkscape:window-y="0"
     inkscape:window-maximized="1"
     inkscape:current-layer="layer2"
     showguides="true" />
  <defs
     id="defs323">
    <rect
       x="211.03494"
       y="419.24218"
       width="677.49472"
       height="208.99696"
       id="rect9864" />
    <linearGradient
       inkscape:collect="always"
       id="linearGradient9732">
      <stop
         style="stop-color:#090955;stop-opacity:1;"
         offset="0"
         id="stop9728" />
      <stop
         style="stop-color:#090955;stop-opacity:0;"
         offset="1"
         id="stop9730" />
    </linearGradient>
    <linearGradient
       id="linearGradient8006"
       inkscape:swatch="solid">
      <stop
         style="stop-color:#090955;stop-opacity:1;"
         offset="0"
         id="stop8004" />
    </linearGradient>
    <rect
       x="227.06642"
       y="112.65676"
       width="221.25926"
       height="269.74371"
       id="rect515" />
    <rect
       x="227.06642"
       y="112.65676"
       width="221.25926"
       height="269.74371"
       id="rect515-3" />
    <rect
       x="227.06642"
       y="112.65676"
       width="221.25926"
       height="269.74371"
       id="rect515-3-7" />
    <rect
       x="227.06642"
       y="112.65676"
       width="221.25926"
       height="269.74371"
       id="rect515-3-7-3" />
    <rect
       x="227.06642"
       y="112.65676"
       width="221.25926"
       height="269.74371"
       id="rect515-3-7-3-6" />
    <rect
       x="227.06642"
       y="112.65676"
       width="221.25926"
       height="269.74371"
       id="rect515-3-7-3-6-9" />
    <rect
       x="227.06642"
       y="112.65676"
       width="221.25926"
       height="269.74371"
       id="rect515-3-7-3-0" />
    <rect
       x="227.06642"
       y="112.65676"
       width="369.88688"
       height="156.86558"
       id="rect515-3-7-6" />
    <linearGradient
       inkscape:collect="always"
       xlink:href="#linearGradient9732"
       id="linearGradient9734"
       x1="23.295263"
       y1="28.727381"
       x2="44.923313"
       y2="28.727381"
       gradientUnits="userSpaceOnUse"
       gradientTransform="translate(7.9584137,71.261115)" />
    <rect
       x="227.06642"
       y="112.65676"
       width="221.25926"
       height="269.74371"
       id="rect515-3-7-7" />
    <rect
       x="227.06642"
       y="112.65676"
       width="221.25926"
       height="269.74371"
       id="rect515-3-7-7-9" />
    <rect
       x="227.06642"
       y="112.65676"
       width="221.25926"
       height="269.74371"
       id="rect515-3-7-3-3" />
    <rect
       x="227.06642"
       y="112.65676"
       width="221.25926"
       height="269.74371"
       id="rect515-3-7-3-9" />
    <rect
       x="227.06642"
       y="112.65676"
       width="221.25926"
       height="269.74371"
       id="rect515-3-7-7-9-4" />
    <rect
       x="227.06642"
       y="112.65676"
       width="221.25926"
       height="269.74371"
       id="rect515-3-7-3-3-3" />
    <rect
       x="227.06642"
       y="112.65676"
       width="340.35267"
       height="166.68622"
       id="rect515-3-7-7-9-4-3" />
  </defs>
  <g
     inkscape:groupmode="layer"
     id="layer2"
     inkscape:label="texto"
     style="display:inline">
    <text
       xml:space="preserve"
       transform="matrix(0.26458333,0,0,0.26458333,-12.774219,203.11826)"
       id="text513-6-5-59-7-4-2"
       style="font-style:normal;font-weight:normal;font-size:16px;line-height:1.25;font-family:sans-serif;text-align:start;letter-spacing:0px;word-spacing:0px;white-space:pre;shape-inside:url(#rect515-3-7-7-9-4-3);display:inline;fill:#000000;fill-opacity:1;stroke:none"
       x="9.399414e-06"
       y="0"><tspan
         x="227.06641"
         y="127.21425"
         id="tspan24381"><tspan
           style="font-weight:bold;-inkscape-font-specification:'sans-serif Bold'"
           id="tspan24379">
</tspan></tspan><tspan
         x="227.06641"
         y="147.21425"
         id="tspan24387"><tspan
   style="font-weight:bold;-inkscape-font-specification:'sans-serif Bold'"
   id="tspan24383">•</tspan> <tspan
   style="font-weight:bold;-inkscape-font-specification:'sans-serif Bold'"
   id="tspan24385">Bienes Normales
</tspan></tspan><tspan
         x="227.06641"
         y="167.21425"
         id="tspan24391"><tspan
           style="font-weight:bold;-inkscape-font-specification:'sans-serif Bold'"
           id="tspan24389">• Bienes Inferiores
</tspan></tspan><tspan
         x="227.06641"
         y="187.21425"
         id="tspan24395"><tspan
           style="font-weight:bold;-inkscape-font-specification:'sans-serif Bold'"
           id="tspan24393">• Bien Giffen
</tspan></tspan><tspan
         x="227.06641"
         y="207.21425"
         id="tspan24399"><tspan
           style="font-weight:bold;-inkscape-font-specification:'sans-serif Bold'"
           id="tspan24397">• Bienes de Lujo
</tspan></tspan><tspan
         x="227.06641"
         y="227.21425"
         id="tspan24403"><tspan
           style="font-weight:bold;-inkscape-font-specification:'sans-serif Bold'"
           id="tspan24401">• Bienes Snob
</tspan></tspan><tspan
         x="227.06641"
         y="247.21425"
         id="tspan24407"><tspan
           style="font-weight:bold;-inkscape-font-specification:'sans-serif Bold'"
           id="tspan24405">
</tspan></tspan><tspan
         x="227.06641"
         y="267.21425"
         id="tspan24409">
</tspan></text>
    <text
       xml:space="preserve"
       transform="matrix(0.26458333,0,0,0.26458333,15.886774,175.37859)"
       id="text513-6-5-5-1"
       style="font-style:normal;font-weight:normal;font-size:16px;line-height:1.25;font-family:sans-serif;text-align:center;letter-spacing:0px;word-spacing:0px;white-space:pre;shape-inside:url(#rect515-3-7-3-3);display:inline;fill:#000000;fill-opacity:1;stroke:none"><tspan
         x="284.85631"
         y="127.21425"
         id="tspan24411">Configuración
</tspan><tspan
         x="306.21628"
         y="147.21425"
         id="tspan24415"><tspan
           style="font-weight:bold;-inkscape-font-specification:'sans-serif Bold'"
           id="tspan24413">Materia
</tspan></tspan><tspan
         x="300.7123"
         y="167.21425"
         id="tspan24419"><tspan
           style="font-weight:bold;-inkscape-font-specification:'sans-serif Bold'"
           id="tspan24417">Energía y
</tspan></tspan><tspan
         x="298.51228"
         y="187.21425"
         id="tspan24423"><tspan
           style="font-weight:bold;-inkscape-font-specification:'sans-serif Bold'"
           id="tspan24421"> Plusvalor </tspan></tspan></text>
    <text
       xml:space="preserve"
       transform="matrix(0.26458333,0,0,0.26458333,75.195335,175.90658)"
       id="text513-6-5-59-7-4"
       style="font-style:normal;font-weight:normal;font-size:16px;line-height:1.25;font-family:sans-serif;text-align:center;letter-spacing:0px;word-spacing:0px;white-space:pre;shape-inside:url(#rect515-3-7-7-9-4);display:inline;fill:#000000;fill-opacity:1;stroke:none"><tspan
         x="337.69629"
         y="127.21425"
         id="tspan24425">
</tspan><tspan
         x="268.29631"
         y="147.21425"
         id="tspan24429"><tspan
           style="font-weight:bold;-inkscape-font-specification:'sans-serif Bold'"
           id="tspan24427">Bienes duraderos
</tspan></tspan><tspan
         x="337.69629"
         y="167.21425"
         id="tspan24433"><tspan
           style="font-weight:bold;-inkscape-font-specification:'sans-serif Bold'"
           id="tspan24431">
</tspan></tspan><tspan
         x="253.92831"
         y="187.21425"
         id="tspan24437"><tspan
           style="font-weight:bold;-inkscape-font-specification:'sans-serif Bold'"
           id="tspan24435">Bienes no duraderos 
</tspan></tspan><tspan
         x="337.69629"
         y="207.21425"
         id="tspan24439">
</tspan></text>
    <text
       xml:space="preserve"
       transform="matrix(0.26458333,0,0,0.26458333,96.313517,125.7409)"
       id="text513-6-5-59-7"
       style="font-style:normal;font-weight:normal;font-size:16px;line-height:1.25;font-family:sans-serif;text-align:center;letter-spacing:0px;word-spacing:0px;white-space:pre;shape-inside:url(#rect515-3-7-7-9);display:inline;fill:#000000;fill-opacity:1;stroke:none"><tspan
         x="337.69629"
         y="127.21425"
         id="tspan24441">
</tspan><tspan
         x="309.63229"
         y="147.21425"
         id="tspan24445"><tspan
           style="font-weight:bold;-inkscape-font-specification:'sans-serif Bold'"
           id="tspan24443">Finales
</tspan></tspan><tspan
         x="337.69629"
         y="167.21425"
         id="tspan24449"><tspan
           style="font-weight:bold;-inkscape-font-specification:'sans-serif Bold'"
           id="tspan24447">
</tspan></tspan><tspan
         x="286.4003"
         y="187.21425"
         id="tspan24453"><tspan
           style="font-weight:bold;-inkscape-font-specification:'sans-serif Bold'"
           id="tspan24451">Intermedios 
</tspan></tspan><tspan
         x="337.69629"
         y="207.21425"
         id="tspan24455">
</tspan></text>
    <text
       xml:space="preserve"
       transform="matrix(0.26458333,0,0,0.26458333,43.785237,148.67344)"
       id="text513-6-5-5"
       style="font-style:normal;font-weight:normal;font-size:16px;line-height:1.25;font-family:sans-serif;text-align:center;letter-spacing:0px;word-spacing:0px;white-space:pre;shape-inside:url(#rect515-3-7-3);display:inline;fill:#000000;fill-opacity:1;stroke:none"><tspan
         x="287.7123"
         y="127.21425"
         id="tspan24461"><tspan
   style="font-weight:bold;-inkscape-font-specification:'sans-serif Bold'"
   id="tspan24457">V</tspan><tspan
   style="font-weight:bold;-inkscape-font-specification:'sans-serif Bold'"
   id="tspan24459">alor de Uso</tspan>
</tspan><tspan
         x="298.44032"
         y="147.21425"
         id="tspan24463"> especifico </tspan></text>
    <text
       xml:space="preserve"
       transform="matrix(0.26458333,0,0,0.26458333,-42.919317,149.62077)"
       id="text513-6-5-5-1-0"
       style="font-style:normal;font-weight:normal;font-size:16px;line-height:1.25;font-family:sans-serif;text-align:justify;letter-spacing:0px;word-spacing:0px;white-space:pre;shape-inside:url(#rect515-3-7-3-3-3);display:inline;fill:#000000;fill-opacity:1;stroke:none"
       x="0"
       y="0"><tspan
         x="227.06641"
         y="129.64062"
         id="tspan24467">      <tspan
   style="font-size:18.6667px"
   id="tspan24465">Efecto</tspan> 
</tspan><tspan
         x="227.06641"
         y="150.54763"
         id="tspan24471">    • <tspan
   style="font-weight:bold;-inkscape-font-specification:'sans-serif Bold'"
   id="tspan24469">Oferta
</tspan></tspan><tspan
         x="227.06641"
         y="170.54763"
         id="tspan24475"><tspan
           style="font-weight:bold;-inkscape-font-specification:'sans-serif Bold'"
           id="tspan24473">    • Demanda 
</tspan></tspan><tspan
         x="227.06641"
         y="190.54763"
         id="tspan24479"><tspan
           style="font-weight:bold;-inkscape-font-specification:'sans-serif Bold'"
           id="tspan24477">    • Ingreso
</tspan></tspan><tspan
         x="227.06641"
         y="210.54763"
         id="tspan24483"><tspan
   style="font-weight:bold;-inkscape-font-specification:'sans-serif Bold'"
   id="tspan24481">    • Preferencias</tspan> 
</tspan><tspan
         x="227.06641"
         y="230.54763"
         id="tspan24485">de consumo</tspan></text>
    <text
       xml:space="preserve"
       transform="matrix(0.26458333,0,0,0.26458333,-65.114755,35.173243)"
       id="text9862"
       style="font-style:normal;font-weight:normal;font-size:16px;line-height:1.25;font-family:sans-serif;text-align:center;letter-spacing:0px;word-spacing:0px;white-space:pre;shape-inside:url(#rect9864);display:inline;fill:#000000;fill-opacity:1;stroke:none"><tspan
         x="474.11024"
         y="433.80019"
         id="tspan24489"><tspan
           style="font-weight:bold;-inkscape-font-specification:'sans-serif Bold'"
           id="tspan24487">Bienes Económicos </tspan></tspan></text>
    <text
       xml:space="preserve"
       transform="matrix(0.26458333,0,0,0.26458333,55.496563,113.58811)"
       id="text513-6-5"
       style="font-style:normal;font-weight:normal;font-size:16px;line-height:1.25;font-family:sans-serif;text-align:center;letter-spacing:0px;word-spacing:0px;white-space:pre;shape-inside:url(#rect515-3-7);display:inline;fill:#000000;fill-opacity:1;stroke:none"><tspan
         x="306.0323"
         y="127.21425"
         id="tspan24493"><tspan
           style="font-weight:bold;-inkscape-font-specification:'sans-serif Bold'"
           id="tspan24491">Función</tspan></tspan></text>
    <text
       xml:space="preserve"
       transform="matrix(0.26458333,0,0,0.26458333,95.01351,75.569807)"
       id="text513-6-5-59"
       style="font-style:normal;font-weight:normal;font-size:16px;line-height:1.25;font-family:sans-serif;text-align:center;letter-spacing:0px;word-spacing:0px;white-space:pre;shape-inside:url(#rect515-3-7-7);display:inline;fill:#000000;fill-opacity:1;stroke:none"><tspan
         x="337.69629"
         y="127.21425"
         id="tspan24495">
</tspan><tspan
         x="337.69629"
         y="147.21425"
         id="tspan24497">
</tspan><tspan
         x="296.7923"
         y="167.21425"
         id="tspan24501"><tspan
           style="font-weight:bold;-inkscape-font-specification:'sans-serif Bold'"
           id="tspan24499">De Capital
</tspan></tspan><tspan
         x="337.69629"
         y="187.21425"
         id="tspan24505"><tspan
           style="font-weight:bold;-inkscape-font-specification:'sans-serif Bold'"
           id="tspan24503">
</tspan></tspan><tspan
         x="287.62431"
         y="207.21425"
         id="tspan24509"><tspan
   style="font-weight:bold;-inkscape-font-specification:'sans-serif Bold'"
   id="tspan24507">De Consumo</tspan>
</tspan></text>
    <text
       xml:space="preserve"
       transform="matrix(0.26458333,0,0,0.26458333,50.218475,53.583967)"
       id="text513-6-5-5-9"
       style="font-style:normal;font-weight:normal;font-size:16px;line-height:1.25;font-family:sans-serif;text-align:justify;letter-spacing:0px;word-spacing:0px;white-space:pre;shape-inside:url(#rect515-3-7-3-0);display:inline;fill:#000000;fill-opacity:1;stroke:none"
       x="0"
       y="0"><tspan
         x="227.06641"
         y="127.21425"
         id="tspan24513"><tspan
   style="font-weight:bold;-inkscape-font-specification:'sans-serif Bold'"
   id="tspan24511">Bienes no Económicos</tspan>
</tspan><tspan
         x="227.06641"
         y="147.21425"
         id="tspan24515">
</tspan><tspan
         x="227.06641"
         y="167.21425"
         id="tspan24517">
</tspan><tspan
         x="227.06641"
         y="187.21425"
         id="tspan24519">
</tspan><tspan
         x="227.06641"
         y="207.21425"
         id="tspan24521">
</tspan></text>
    <text
       xml:space="preserve"
       transform="matrix(0.26458333,0,0,0.26458333,22.956707,58.584854)"
       id="text513-6-5-0"
       style="font-style:normal;font-weight:normal;font-size:16px;line-height:1.25;font-family:sans-serif;text-align:center;letter-spacing:0px;word-spacing:0px;white-space:pre;shape-inside:url(#rect515-3-7-6);display:inline;fill:#000000;fill-opacity:1;stroke:none"><tspan
         x="350.85779"
         y="127.21425"
         id="tspan24523">Bienes gratuitos
</tspan><tspan
         x="380.39378"
         y="147.21425"
         id="tspan24525"> o libres 
</tspan><tspan
         x="345.32977"
         y="167.21425"
         id="tspan24527">(Samuelson 2010)</tspan></text>
    <text
       xml:space="preserve"
       transform="matrix(0.26458333,0,0,0.26458333,-22.175014,45.876832)"
       id="text513-6"
       style="font-style:normal;font-weight:normal;font-size:16px;line-height:1.25;font-family:sans-serif;text-align:center;letter-spacing:0px;word-spacing:0px;white-space:pre;shape-inside:url(#rect515-3);display:inline;fill:#000000;fill-opacity:1;stroke:none"><tspan
         x="269.7043"
         y="127.21425"
         id="tspan24531"><tspan
           style="font-weight:bold;-inkscape-font-specification:'sans-serif Bold'"
           id="tspan24529">Grado de Escasez</tspan></tspan></text>
    <text
       xml:space="preserve"
       transform="matrix(0.26458333,0,0,0.26458333,-64.254039,90.786937)"
       id="text513"
       style="font-style:normal;font-weight:normal;font-size:24px;line-height:1.25;font-family:sans-serif;text-align:center;letter-spacing:0px;word-spacing:0px;white-space:pre;shape-inside:url(#rect515);display:inline;fill:#000000;fill-opacity:1;stroke:none"><tspan
         x="297.94029"
         y="134.49325"
         id="tspan24535"><tspan
           style="font-weight:bold;-inkscape-font-specification:'sans-serif Bold'"
           id="tspan24533">Bienes</tspan></tspan></text>
  </g>
  <g
     inkscape:label="Capa 1"
     inkscape:groupmode="layer"
     id="layer1"
     style="display:inline">
    <ellipse
       style="fill:none;fill-opacity:1;stroke:#090955;stroke-width:4.30245;stroke-linejoin:bevel;stroke-miterlimit:64.4;stroke-dasharray:none;stroke-opacity:1;paint-order:markers fill stroke"
       id="path5921"
       cx="25.553812"
       cy="123.84106"
       rx="15.157341"
       ry="16.288126" />
    <ellipse
       style="fill:none;fill-opacity:1;stroke:#090955;stroke-width:6.56028;stroke-linejoin:bevel;stroke-miterlimit:64.4;stroke-dasharray:none;stroke-opacity:1;paint-order:markers fill stroke"
       id="path5921-6"
       cx="67.542145"
       cy="78.121536"
       rx="23.111588"
       ry="24.835783" />
    <path
       style="fill:url(#linearGradient9734);fill-opacity:1;fill-rule:evenodd;stroke:#000000;stroke-width:6.065;stroke-linecap:butt;stroke-linejoin:miter;stroke-dasharray:none;stroke-opacity:1"
       d="M 33.412758,108.764 50.722644,91.212986"
       id="path8803"
       inkscape:connector-type="polyline"
       inkscape:connector-curvature="0" />
    <path
       style="fill:#090955;fill-opacity:1;stroke:#090955;stroke-width:0.0107343;stroke-linejoin:bevel;stroke-miterlimit:64.4;stroke-dasharray:none;stroke-opacity:1;paint-order:markers fill stroke"
       d="m 33.413554,108.76075 -0.09509,-0.0906 0.562576,-0.56535 c 0.309417,-0.31094 2.529101,-2.55959 4.932629,-4.99699 l 4.370054,-4.431627 0.183356,-0.003 0.183359,-0.003 -0.391718,0.39413 c -0.497205,0.50026 -8.622734,8.741697 -9.209264,9.340637 -0.240907,0.246 -0.438643,0.44705 -0.439413,0.44679 -7.67e-4,-2.7e-4 -0.04419,-0.0413 -0.09649,-0.0911 z"
       id="path9726" />
    <path
       style="fill:#090955;fill-opacity:1;stroke:#090955;stroke-width:0.982692;stroke-linejoin:bevel;stroke-miterlimit:64.4;stroke-dasharray:none;stroke-opacity:1;paint-order:markers fill stroke"
       d="m 34.547249,109.87623 -1.019131,-1.02117 5.005997,-5.07519 c 2.753297,-2.79135 5.012373,-5.091087 5.02017,-5.110527 0.0078,-0.0194 -0.07901,-0.0241 -0.192913,-0.0102 -0.196604,0.0239 -0.231997,0.0504 -0.699148,0.52481 -6.170393,6.265767 -9.312553,9.437957 -9.34862,9.437957 -0.01459,0 -0.479959,-0.44242 -1.034163,-0.98314 l -1.007643,-0.98314 0.796902,-0.81486 C 33.216492,104.6671 45.835279,91.860251 47.319568,90.362603 l 1.250278,-1.261533 2.147596,2.115962 2.147597,2.115962 -0.416539,0.431656 c -0.229095,0.237411 -1.382835,1.405865 -2.563868,2.596566 -2.885035,2.908647 -11.286556,11.429824 -12.967862,13.152544 l -1.350391,1.38365 z"
       id="path9805" />
    <ellipse
       style="fill:none;fill-opacity:1;stroke:#090955;stroke-width:7.96514;stroke-linejoin:bevel;stroke-miterlimit:64.4;stroke-dasharray:none;stroke-opacity:1;paint-order:markers fill stroke"
       id="path5921-6-2"
       cx="133.70825"
       cy="90.249657"
       rx="28.060852"
       ry="30.154278" />
    <path
       style="fill:#090955;fill-opacity:1;stroke:#090955;stroke-width:0.982692;stroke-linejoin:bevel;stroke-miterlimit:64.4;stroke-dasharray:none;stroke-opacity:1;paint-order:markers fill stroke"
       d="m 86.865545,88.158551 0.275904,-1.41608 7.007576,1.30822 c 3.854162,0.71953 7.024325,1.30461 7.044795,1.30019 0.0204,-0.004 -0.0243,-0.079 -0.0995,-0.16558 -0.12984,-0.14955 -0.17161,-0.16405 -0.82621,-0.28568 -8.645898,-1.60687 -13.033301,-2.43552 -13.053486,-2.46541 -0.0082,-0.0121 0.09803,-0.64535 0.235975,-1.40725 l 0.250817,-1.38528 1.121286,0.20437 c 1.615019,0.29435 14.938698,2.928148 17.017878,3.278944 l 2.91769,0.801902 -1.0626,2.127327 0.48379,2.208865 0.32293,1.256624 c 0.0821,0.319548 -0.20519,0.09789 -1.85293,-0.214482 -4.0251,-0.76305 -15.78878,-2.95665 -18.157395,-3.38586 l -1.902423,-0.34473 z"
       id="path9805-1"
       sodipodi:nodetypes="ccscccsscsscccssscc" />
    <ellipse
       style="fill:none;fill-opacity:1;stroke:#090955;stroke-width:9.63079;stroke-linejoin:bevel;stroke-miterlimit:64.4;stroke-dasharray:none;stroke-opacity:1;paint-order:markers fill stroke"
       id="path5921-6-2-8"
       cx="81.233475"
       cy="147.73846"
       rx="33.928894"
       ry="36.460094" />
    <path
       style="fill:#090955;fill-opacity:1;stroke:#090955;stroke-width:0.658209;stroke-linejoin:bevel;stroke-miterlimit:64.4;stroke-dasharray:none;stroke-opacity:1;paint-order:markers fill stroke"
       d="m 76.396779,100.99007 0.995268,-0.34726 1.191457,4.22009 c 0.655301,2.32105 1.198664,4.22781 1.207473,4.23725 0.0086,0.01 0.04404,-0.0407 0.07808,-0.11135 0.0589,-0.12202 0.05612,-0.14952 -0.05554,-0.54353 -1.47468,-5.20419 -2.214446,-7.84972 -2.201001,-7.87101 0.0055,-0.009 0.445516,-0.17313 0.977963,-0.3656 l 0.968066,-0.349947 0.193855,0.673527 c 0.27921,0.97009 2.449936,9.04507 2.827591,10.28411 l 0.329864,1.84707 -1.683533,0.17368 -1.286759,1.03248 -0.718169,0.61299 c -0.182627,0.15587 -0.12287,-0.0759 -0.399982,-1.06989 -0.676854,-2.42805 -2.678599,-9.51146 -3.089711,-10.93334 l -0.3302,-1.14202 z"
       id="path9805-1-7"
       sodipodi:nodetypes="ccscccsscsscccssscc" />
    <ellipse
       style="fill:none;fill-opacity:1;stroke:#090955;stroke-width:4.30245;stroke-linejoin:bevel;stroke-miterlimit:64.4;stroke-dasharray:none;stroke-opacity:1;paint-order:markers fill stroke"
       id="path5921-9"
       cx="144.87157"
       cy="145.49864"
       rx="15.157341"
       ry="16.288126" />
    <ellipse
       style="fill:none;fill-opacity:1;stroke:#090955;stroke-width:5.41783;stroke-linejoin:bevel;stroke-miterlimit:64.4;stroke-dasharray:none;stroke-opacity:1;paint-order:markers fill stroke"
       id="path5921-9-2-0"
       cx="184.1944"
       cy="122.74521"
       rx="19.086761"
       ry="20.510693" />
    <ellipse
       style="fill:none;fill-opacity:1;stroke:#090955;stroke-width:4.49938;stroke-linejoin:bevel;stroke-miterlimit:64.4;stroke-dasharray:none;stroke-opacity:1;paint-order:markers fill stroke"
       id="path5921-9-23"
       cx="132.82555"
       cy="181.48997"
       rx="15.85111"
       ry="17.033653" />
    <path
       style="fill:#090955;fill-opacity:1;stroke:#090955;stroke-width:0.658209;stroke-linejoin:bevel;stroke-miterlimit:64.4;stroke-dasharray:none;stroke-opacity:1;paint-order:markers fill stroke"
       d="m 116.85121,145.90709 -0.10144,-1.04921 4.38224,-0.15718 c 2.41022,-0.0865 4.39145,-0.16236 4.40271,-0.16868 0.0113,-0.006 -0.0291,-0.0524 -0.0896,-0.10227 -0.10462,-0.0861 -0.13197,-0.09 -0.54121,-0.0749 -5.40542,0.19906 -8.15092,0.29066 -8.16841,0.27255 -0.007,-0.007 -0.0626,-0.47384 -0.12337,-1.03675 l -0.11051,-1.02343 0.70028,-0.0287 c 1.00863,-0.0413 9.36802,-0.2361 10.66127,-0.30929 l 1.87262,0.11736 -0.23034,1.67672 0.69805,1.49483 0.42529,0.843 c 0.10811,0.21437 -0.1029,0.10137 -1.13421,0.13498 -2.51929,0.082 -9.87531,0.34769 -11.35412,0.41005 l -1.18774,0.0501 z"
       id="path9805-1-7-2"
       sodipodi:nodetypes="ccscccsscsscccssscc" />
    <path
       style="fill:#090955;fill-opacity:1;stroke:#090955;stroke-width:0.658209;stroke-linejoin:bevel;stroke-miterlimit:64.4;stroke-dasharray:none;stroke-opacity:1;paint-order:markers fill stroke"
       d="m 156.73093,137.26673 -0.53987,-0.90536 3.89527,-2.01387 c 2.14236,-1.10767 3.90137,-2.02249 3.90885,-2.03301 0.008,-0.0102 -0.0487,-0.035 -0.12469,-0.0542 -0.13138,-0.0332 -0.15777,-0.025 -0.52135,0.16344 -4.80253,2.48876 -7.24587,3.74424 -7.26942,3.73534 -0.009,-0.003 -0.25899,-0.40171 -0.55437,-0.88473 l -0.53705,-0.87818 0.62093,-0.32505 c 0.89436,-0.46816 8.36967,-4.21477 9.50775,-4.83332 l 1.74334,-0.69372 0.50789,1.61446 1.26965,1.05347 0.74461,0.58058 c 0.18931,0.14766 -0.0497,0.13561 -0.96789,0.6065 -2.24291,1.15018 -8.7807,4.53233 -10.09119,5.22035 l -1.05255,0.55261 z"
       id="path9805-1-7-2-2"
       sodipodi:nodetypes="ccscccsscsscccssscc"
       inkscape:transform-center-x="9.2937276"
       inkscape:transform-center-y="6.6467052" />
    <ellipse
       style="fill:none;fill-opacity:1;stroke:#090955;stroke-width:5.41783;stroke-linejoin:bevel;stroke-miterlimit:64.4;stroke-dasharray:none;stroke-opacity:1;paint-order:markers fill stroke"
       id="path5921-9-2-0-3"
       cx="185.77917"
       cy="169.73447"
       rx="19.086761"
       ry="20.510693" />
    <path
       style="fill:#090955;fill-opacity:1;stroke:#090955;stroke-width:0.796482;stroke-linejoin:bevel;stroke-miterlimit:64.4;stroke-dasharray:none;stroke-opacity:1;paint-order:markers fill stroke"
       d="m 148.42429,180.62531 -0.24526,-1.01474 6.5599,-0.40496 c 3.60791,-0.22278 6.57323,-0.41054 6.58956,-0.41733 0.0168,-0.006 -0.0482,-0.0493 -0.14351,-0.0943 -0.16456,-0.0778 -0.20596,-0.0799 -0.81852,-0.0417 -8.09104,0.50456 -12.20145,0.75157 -12.2293,0.73497 -0.0105,-0.006 -0.136,-0.45731 -0.27704,-1.00137 l -0.25656,-0.98914 1.04794,-0.0682 c 1.5094,-0.0982 14.03209,-0.76852 15.96561,-0.9141 l 2.81954,0.007 -0.1968,1.64422 1.17976,1.41389 0.71276,0.79553 c 0.18118,0.20231 -0.14531,0.10455 -1.68946,0.19655 -3.77193,0.22466 -14.78319,0.90623 -16.99601,1.05196 l -1.77731,0.11705 z"
       id="path9805-1-7-2-2-6"
       sodipodi:nodetypes="ccscccsscsscccssscc"
       inkscape:transform-center-x="16.555355"
       inkscape:transform-center-y="2.5739707" />
    <path
       style="fill:#090955;fill-opacity:1;stroke:#090955;stroke-width:0.658209;stroke-linejoin:bevel;stroke-miterlimit:64.4;stroke-dasharray:none;stroke-opacity:1;paint-order:markers fill stroke"
       d="m 105.74371,169.88888 0.47891,-0.93903 3.77869,2.2249 c 2.0783,1.22365 3.78924,2.2255 3.80213,2.22623 0.0128,0.001 0.004,-0.0598 -0.0205,-0.13441 -0.0419,-0.12886 -0.0628,-0.14687 -0.41594,-0.35429 -4.66374,-2.74001 -7.02741,-4.13972 -7.03242,-4.1644 -0.002,-0.01 0.20213,-0.43311 0.45372,-0.94032 l 0.45739,-0.92218 0.60576,0.35252 c 0.87248,0.50777 8.02406,4.84045 9.15361,5.47445 l 1.51545,1.1063 -1.09615,1.28953 -0.2157,1.63563 -0.095,0.93941 c -0.0242,0.23887 -0.14127,0.0301 -1.02872,-0.49636 -2.16783,-1.28611 -8.51172,-5.01928 -9.79188,-5.76223 l -1.02818,-0.59671 z"
       id="path9805-1-7-2-1"
       sodipodi:nodetypes="ccscccsscsscccssscc" />
    <ellipse
       style="fill:none;fill-opacity:1;stroke:#090955;stroke-width:5.44969;stroke-linejoin:bevel;stroke-miterlimit:64.4;stroke-dasharray:none;stroke-opacity:1;paint-order:markers fill stroke"
       id="path5921-9-23-2"
       cx="105.36155"
       cy="214.11705"
       rx="19.198999"
       ry="20.631306" />
    <path
       style="fill:#090955;fill-opacity:1;stroke:#090955;stroke-width:0.658209;stroke-linejoin:bevel;stroke-miterlimit:64.4;stroke-dasharray:none;stroke-opacity:1;paint-order:markers fill stroke"
       d="m 84.371511,184.98228 0.828666,-0.6515 2.496729,3.60486 c 1.373239,1.98264 2.506055,3.60983 2.51745,3.6159 0.0112,0.006 0.02872,-0.0526 0.03778,-0.13061 0.01602,-0.13455 0.0046,-0.15967 -0.22894,-0.4961 -3.084038,-4.44374 -4.642461,-6.70591 -4.636656,-6.73042 0.0024,-0.01 0.365179,-0.30836 0.806341,-0.66323 l 0.802061,-0.64523 0.401992,0.57412 c 0.578977,0.82695 5.253205,7.76011 6.012582,8.80949 l 0.911542,1.63999 -1.536004,0.71072 -0.881969,1.39426 -0.480331,0.81289 c -0.122176,0.20668 -0.140865,-0.0319 -0.72559,-0.88213 -1.428307,-2.0769 -5.620857,-8.12702 -6.471244,-9.33848 l -0.683003,-0.973 z"
       id="path9805-1-7-2-1-9"
       sodipodi:nodetypes="ccscccsscsscccssscc" />
    <ellipse
       style="fill:none;fill-opacity:1;stroke:#090955;stroke-width:7.38855;stroke-linejoin:bevel;stroke-miterlimit:64.4;stroke-dasharray:none;stroke-opacity:1;paint-order:markers fill stroke"
       id="path5921-9-2-0-3-5"
       cx="164.2169"
       cy="220.93704"
       rx="26.029533"
       ry="27.971415" />
    <path
       style="fill:#090955;fill-opacity:1;stroke:#090955;stroke-width:0.630958;stroke-linejoin:bevel;stroke-miterlimit:64.4;stroke-dasharray:none;stroke-opacity:1;paint-order:markers fill stroke"
       d="m 126.16124,219.33323 -0.14925,-1.04653 3.99162,-0.41764 c 2.19536,-0.22976 3.99972,-0.42341 4.00965,-0.43042 0.01,-0.006 -0.0294,-0.0509 -0.0874,-0.0972 -0.10014,-0.0802 -0.12528,-0.0825 -0.49807,-0.043 -4.92328,0.52037 -7.42441,0.77512 -7.44134,0.75799 -0.007,-0.006 -0.0827,-0.47163 -0.16858,-1.03274 l -0.15612,-1.02013 0.63766,-0.0703 c 0.91845,-0.10128 8.53832,-0.79261 9.71484,-0.94275 l 1.71565,0.007 -0.11978,1.69574 0.71786,1.45819 0.4337,0.82046 c 0.1103,0.20865 -0.0885,0.10782 -1.02802,0.20269 -2.29516,0.23171 -8.99535,0.93463 -10.34182,1.08493 l -1.08147,0.12071 z"
       id="path9805-1-7-2-2-6-0"
       sodipodi:nodetypes="ccscccsscsscccssscc"
       inkscape:transform-center-x="10.073801"
       inkscape:transform-center-y="2.6545817" />
    <ellipse
       style="fill:none;fill-opacity:1;stroke:#090955;stroke-width:7.05641;stroke-linejoin:bevel;stroke-miterlimit:64.4;stroke-dasharray:none;stroke-opacity:1;paint-order:markers fill stroke"
       id="path5921-9-23-2-6"
       cx="30.960133"
       cy="199.28177"
       rx="24.859385"
       ry="26.713974" />
    <path
       style="fill:#090955;fill-opacity:1;stroke:#090955;stroke-width:0.658209;stroke-linejoin:bevel;stroke-miterlimit:64.4;stroke-dasharray:none;stroke-opacity:1;paint-order:markers fill stroke"
       d="m 48.462643,161.47878 0.932554,0.49141 -2.27517,3.74864 c -1.251298,2.06177 -2.27591,3.75917 -2.276812,3.77205 -9.17e-4,0.0127 0.05974,0.005 0.134672,-0.0187 0.129407,-0.0402 0.147696,-0.0608 0.359815,-0.41117 2.802055,-4.62673 4.233204,-6.97149 4.257953,-6.97617 0.01011,-0.002 0.430373,0.2079 0.934173,0.46624 l 0.915991,0.46966 -0.360575,0.601 c -0.519383,0.86562 -4.947188,7.95869 -5.596223,9.07968 l -1.126439,1.50053 -1.274773,-1.11327 -1.632609,-0.23752 -0.938053,-0.10755 c -0.238524,-0.0274 -0.02825,-0.14164 0.510054,-1.02199 1.314951,-2.15046 5.132512,-8.44392 5.892498,-9.71405 l 0.610391,-1.02012 z"
       id="path9805-1-7-2-1-9-1"
       sodipodi:nodetypes="ccscccsscsscccssscc"
       inkscape:transform-center-x="21.206898"
       inkscape:transform-center-y="2.1481817" />
    <ellipse
       style="fill:none;fill-opacity:1;stroke:#090955;stroke-width:7.38855;stroke-linejoin:bevel;stroke-miterlimit:64.4;stroke-dasharray:none;stroke-opacity:1;paint-order:markers fill stroke"
       id="path5921-9-2-0-3-5-6"
       cx="65.949944"
       cy="250.49106"
       rx="26.029533"
       ry="27.971415" />
    <path
       style="fill:#090955;fill-opacity:1;stroke:#090955;stroke-width:0.782941;stroke-linejoin:bevel;stroke-miterlimit:64.4;stroke-dasharray:none;stroke-opacity:1;paint-order:markers fill stroke"
       d="m 43.598217,220.15505 0.575477,-1.11751 4.455755,2.69143 c 2.450692,1.48024 4.468247,2.69225 4.483507,2.69321 0.01515,0.001 0.0052,-0.0715 -0.02309,-0.16074 -0.04849,-0.15431 -0.07308,-0.17601 -0.489503,-0.42692 -5.499444,-3.31463 -8.286566,-5.00773 -8.292282,-5.03724 -0.0023,-0.0115 0.243212,-0.51561 0.545655,-1.11927 l 0.549841,-1.09757 0.714337,0.4265 c 1.028863,0.61433 9.460791,5.85365 10.79301,6.62106 l 1.785102,1.33504 -5.385694,-2.86276 4.865966,4.42957 -4.608322,-2.3555 c -6.425615,-3.28439 -0.697525,2.99711 -1.743954,2.36034 -2.556178,-1.55566 -6.079058,-3.64126 -7.588693,-4.54018 l -1.212485,-0.72195 z"
       id="path9805-1-7-2-1-0"
       sodipodi:nodetypes="ccscccsscsscccssscc" />
  </g>
</svg>
